<svg width="50" height="50" viewBox="0 0 50 50" fill="none" xmlns="http://www.w3.org/2000/svg">
<circle cx="25" cy="25" r="25" fill="#03A8B7"/>
<path d="M28.0831 19.5971C27.9894 19.5033 27.9367 19.3761 27.9367 19.2435C27.9367 19.1109 27.9894 18.9837 28.0831 18.8899C28.1769 18.7961 28.3041 18.7434 28.4367 18.7434C28.5693 18.7434 28.6965 18.7961 28.7903 18.8899L34.4477 24.5473C34.5415 24.6411 34.5942 24.7683 34.5942 24.9009C34.5942 25.0335 34.5415 25.1607 34.4477 25.2545L28.7903 30.9119C28.6965 31.0056 28.5693 31.0583 28.4367 31.0583C28.3041 31.0583 28.1769 31.0056 28.0831 30.9119C27.9894 30.8181 27.9367 30.6909 27.9367 30.5583C27.9367 30.4256 27.9894 30.2985 28.0831 30.2047L32.887 25.4008L15.7075 25.4016C15.5747 25.4016 15.4474 25.3488 15.3535 25.2549C15.2596 25.161 15.2068 25.0337 15.2068 24.9009C15.2068 24.7681 15.2596 24.6407 15.3535 24.5468C15.4474 24.4529 15.5747 24.4002 15.7075 24.4002L32.887 24.4009L28.0831 19.5971Z" fill="#F8F8F8"/>
</svg>
