<svg width="38" height="38" viewBox="0 0 38 38" fill="none" xmlns="http://www.w3.org/2000/svg">
<path d="M36.4324 18.0184L22.1824 3.76843C21.6124 3.19843 20.8208 2.8501 19.95 2.8501H8.86662C7.12495 2.8501 5.69995 4.2751 5.69995 6.01676V17.1001C5.69995 17.9709 6.04828 18.7626 6.63412 19.3484L20.8841 33.5984C21.4541 34.1684 22.2458 34.5168 23.1166 34.5168C23.9874 34.5168 24.7791 34.1684 25.3491 33.5826L36.4324 22.4993C37.0183 21.9293 37.3666 21.1376 37.3666 20.2668C37.3666 19.3959 37.0024 18.5884 36.4324 18.0184ZM11.2416 10.7668C9.92745 10.7668 8.86662 9.70593 8.86662 8.39176C8.86662 7.0776 9.92745 6.01676 11.2416 6.01676C12.5558 6.01676 13.6166 7.0776 13.6166 8.39176C13.6166 9.70593 12.5558 10.7668 11.2416 10.7668ZM29.8775 23.8609L23.1166 30.6218L16.3558 23.8609C15.8008 23.3073 15.4226 22.6014 15.2693 21.8326C15.116 21.0638 15.1944 20.2668 15.4946 19.5427C15.7948 18.8185 16.3032 18.1998 16.9554 17.7649C17.6077 17.3301 18.3744 17.0987 19.1583 17.1001C20.2508 17.1001 21.2483 17.5434 21.9608 18.2718L23.1166 19.4118L24.2724 18.2559C25.0157 17.5127 26.0238 17.0951 27.0749 17.0951C28.1261 17.0951 29.1342 17.5127 29.8775 18.2559C30.6207 18.9992 31.0383 20.0073 31.0383 21.0584C31.0383 22.1096 30.6207 23.1177 29.8775 23.8609Z" fill="#03A8B7"/>
</svg>
