<svg width="39" height="39" viewBox="0 0 39 39" fill="none" xmlns="http://www.w3.org/2000/svg">
<path d="M29.3719 2.52539L36.153 9.59414V36.4749H10.8213V36.5626H36.2395V9.68311L29.3719 2.52539Z" fill="#909090"/>
<path d="M29.2877 2.4375H10.7347V36.4748H36.1529V9.59522L29.2865 2.4375" fill="white"/>
<path d="M10.5482 4.26562H2.76038V12.586H27.2573V4.26562H10.5482Z" fill="#7A7B7C"/>
<path d="M27.3877 12.4447H2.91882V4.11816H27.3877V12.4447Z" fill="#03A8B7"/>
<path d="M11.0322 5.52588H9.43927V11.3759H10.6921V9.40272L10.9688 9.41857C11.2376 9.41394 11.5039 9.36579 11.7573 9.27597C11.9795 9.19955 12.1839 9.07891 12.3582 8.92132C12.5355 8.77119 12.6753 8.58172 12.7665 8.368C12.8887 8.01274 12.9324 7.63517 12.8944 7.26138C12.8868 6.99436 12.84 6.72991 12.7555 6.4765C12.6786 6.29358 12.5644 6.12867 12.4202 5.99229C12.2761 5.8559 12.1051 5.75102 11.9182 5.68432C11.7566 5.62581 11.5897 5.58336 11.4197 5.55757C11.2911 5.53771 11.1611 5.52712 11.031 5.52588H11.0322ZM10.8006 8.32169H10.6921V6.51794H10.9274C11.0312 6.51046 11.1353 6.52639 11.2322 6.56457C11.329 6.60276 11.416 6.66221 11.4868 6.73854C11.6334 6.93477 11.7117 7.17363 11.7098 7.4186C11.7098 7.71841 11.7098 7.99019 11.4392 8.18154C11.2443 8.28874 11.0225 8.33701 10.8006 8.32047" fill="#464648"/>
<path d="M15.2745 5.50993C15.1393 5.50993 15.0076 5.51968 14.915 5.52334L14.6249 5.53065H13.6743V11.3807H14.7931C15.2207 11.3924 15.6464 11.3199 16.046 11.1674C16.3676 11.0398 16.6525 10.8341 16.8748 10.569C17.0909 10.3014 17.2461 9.98986 17.3293 9.65612C17.4251 9.27815 17.4718 8.88942 17.4683 8.49953C17.4919 8.03903 17.4563 7.57741 17.3623 7.126C17.273 6.79372 17.1059 6.48748 16.8748 6.23265C16.6934 6.02688 16.4714 5.8609 16.2227 5.74515C16.0092 5.64633 15.7845 5.5735 15.5536 5.52822C15.4618 5.51305 15.3688 5.50611 15.2758 5.5075L15.2745 5.50993ZM15.0539 10.3057H14.9321V6.57147H14.9479C15.1992 6.54256 15.4534 6.58789 15.6792 6.70187C15.8445 6.8339 15.9792 7.00022 16.074 7.18937C16.1764 7.38844 16.2353 7.60692 16.2471 7.83043C16.2581 8.09856 16.2471 8.31793 16.2471 8.49953C16.2521 8.70871 16.2386 8.91792 16.2069 9.12475C16.1693 9.33709 16.0999 9.54253 16.0009 9.73412C15.8889 9.91225 15.7376 10.0623 15.5585 10.1729C15.4081 10.2701 15.2301 10.3155 15.0515 10.3021" fill="#464648"/>
<path d="M21.2428 5.53076H18.2812V11.3808H19.5341V9.06026H21.1185V7.97314H19.5341V6.61789H21.2404V5.53076" fill="#464648"/>
<path d="M26.5455 24.6857C26.5455 24.6857 30.4309 23.9813 30.4309 25.3085C30.4309 26.6357 28.0239 26.0958 26.5455 24.6857ZM23.6729 24.7869C23.0556 24.9233 22.454 25.123 21.8777 25.3828L22.3652 24.286C22.8527 23.1891 23.3585 21.6937 23.3585 21.6937C23.9402 22.6727 24.617 23.5921 25.3792 24.4383C24.8044 24.524 24.2348 24.6412 23.6729 24.7893V24.7869ZM22.1349 16.865C22.1349 15.7084 22.509 15.3927 22.8003 15.3927C23.0916 15.3927 23.4194 15.5329 23.4304 16.5372C23.3355 17.547 23.1241 18.5424 22.8003 19.5036C22.3568 18.6966 22.1273 17.7895 22.1336 16.8687L22.1349 16.865ZM16.4689 29.6814C15.277 28.9684 18.9686 26.7734 19.6376 26.7027C19.634 26.704 17.7169 30.4272 16.4689 29.6814ZM31.5656 25.4657C31.5534 25.3438 31.4437 23.9947 29.0427 24.052C28.042 24.0358 27.0417 24.1064 26.0531 24.2628C25.0955 23.298 24.2709 22.2099 23.601 21.027C24.023 19.8076 24.2784 18.5367 24.3603 17.2489C24.325 15.7864 23.9752 14.9479 22.8539 14.9601C21.7327 14.9723 21.5694 15.9534 21.7168 17.4134C21.8613 18.3946 22.1338 19.3526 22.5273 20.2629C22.5273 20.2629 22.0093 21.8753 21.3244 23.4792C20.6395 25.083 20.1715 25.924 20.1715 25.924C18.9804 26.3117 17.8592 26.8877 16.8504 27.6302C15.8461 28.565 15.4378 29.2828 15.9668 30.0007C16.4226 30.6198 18.0179 30.76 19.4439 28.8916C20.2015 27.9266 20.8937 26.912 21.5157 25.8545C21.5157 25.8545 23.69 25.2585 24.3664 25.0952C25.0428 24.9319 25.8606 24.8027 25.8606 24.8027C25.8606 24.8027 27.8459 26.8002 29.7606 26.7296C31.6752 26.6589 31.5826 25.5852 31.5704 25.4682" fill="#03A8B7"/>
<path d="M29.194 2.53125V9.68897H36.0592L29.194 2.53125Z" fill="#909090"/>
<path d="M29.2878 2.4375V9.59522H36.1531L29.2878 2.4375Z" fill="#F4F4F4"/>
<path d="M10.9383 5.43213H9.3454V11.2821H10.6031V9.31019L10.881 9.32604C11.1498 9.32141 11.4161 9.27325 11.6696 9.18344C11.8917 9.10699 12.0961 8.98635 12.2704 8.82879C12.4464 8.67826 12.5849 8.48882 12.675 8.27547C12.7973 7.9202 12.8409 7.54264 12.803 7.16885C12.7954 6.90183 12.7486 6.63738 12.6641 6.38397C12.5871 6.20105 12.4729 6.03614 12.3288 5.89976C12.1846 5.76337 12.0137 5.65849 11.8268 5.59179C11.6644 5.53271 11.4966 5.48985 11.3259 5.46382C11.1972 5.44396 11.0673 5.43337 10.9371 5.43213H10.9383ZM10.7067 8.22794H10.5983V6.42419H10.8347C10.9385 6.41671 11.0427 6.43264 11.1395 6.47082C11.2363 6.50901 11.3234 6.56846 11.3941 6.64479C11.5408 6.84102 11.6191 7.07988 11.6171 7.32485C11.6171 7.62466 11.6171 7.89644 11.3466 8.08779C11.1517 8.19499 10.9298 8.24326 10.708 8.22672" fill="white"/>
<path d="M15.1809 5.41618C15.0456 5.41618 14.9139 5.42593 14.8213 5.42959L14.5349 5.4369H13.5843V11.2869H14.7031C15.1307 11.2986 15.5564 11.2262 15.956 11.0736C16.2776 10.946 16.5624 10.7404 16.7847 10.4752C17.0009 10.2076 17.156 9.89611 17.2393 9.56237C17.3351 9.1844 17.3818 8.79567 17.3783 8.40578C17.4019 7.94528 17.3663 7.48366 17.2722 7.03225C17.183 6.69997 17.0159 6.39373 16.7847 6.1389C16.6034 5.93313 16.3814 5.76715 16.1327 5.6514C15.9191 5.55258 15.6945 5.47975 15.4636 5.43447C15.3718 5.4193 15.2788 5.41236 15.1857 5.41375L15.1809 5.41618ZM14.9639 10.212H14.842V6.47772H14.8579C15.1091 6.44881 15.3634 6.49414 15.5891 6.60812C15.7545 6.74015 15.8892 6.90647 15.984 7.09562C16.0863 7.29469 16.1453 7.51317 16.1571 7.73668C16.168 8.00481 16.1571 8.22418 16.1571 8.40578C16.162 8.61496 16.1486 8.82417 16.1169 9.031C16.0793 9.24334 16.0098 9.44878 15.9109 9.64037C15.7989 9.8185 15.6475 9.96859 15.4685 10.0791C15.3181 10.1764 15.14 10.2217 14.9615 10.2083" fill="white"/>
<path d="M21.1489 5.43701H18.1874V11.287H19.4403V8.96651H21.0246V7.87939H19.4403V6.52414H21.1465V5.43701" fill="white"/>
</svg>
