<svg width="40" height="40" viewBox="0 0 40 40" fill="none" xmlns="http://www.w3.org/2000/svg">
<path d="M30 3.3335H21.6667C21.6667 4.25016 20.9167 5.00016 20 5.00016C19.0834 5.00016 18.3334 4.25016 18.3334 3.3335H10C8.16669 3.3335 6.66669 4.8335 6.66669 6.66683V33.3335C6.66669 35.1668 8.16669 36.6668 10 36.6668H30C31.8334 36.6668 33.3334 35.1668 33.3334 33.3335V6.66683C33.3334 4.8335 31.8334 3.3335 30 3.3335Z" fill="#455A64"/>
<path d="M30 34.1668H10C9.50002 34.1668 9.16669 33.8335 9.16669 33.3335V6.66683C9.16669 6.16683 9.50002 5.8335 10 5.8335H30C30.5 5.8335 30.8334 6.16683 30.8334 6.66683V33.3335C30.8334 33.8335 30.5 34.1668 30 34.1668Z" fill="white"/>
<path d="M21.6667 3.3335C21.6667 4.25016 20.9167 5.00016 20 5.00016C19.0833 5.00016 18.3333 4.25016 18.3333 3.3335H12.5V6.66683C12.5 7.5835 13.25 8.3335 14.1667 8.3335H25.8333C26.75 8.3335 27.5 7.5835 27.5 6.66683V3.3335H21.6667Z" fill="#90A4AE"/>
<path d="M20 0C18.1667 0 16.6667 1.5 16.6667 3.33333C16.6667 5.16667 18.1667 6.66667 20 6.66667C21.8334 6.66667 23.3334 5.16667 23.3334 3.33333C23.3334 1.5 21.8334 0 20 0ZM20 5C19.0834 5 18.3334 4.25 18.3334 3.33333C18.3334 2.41667 19.0834 1.66667 20 1.66667C20.9167 1.66667 21.6667 2.41667 21.6667 3.33333C21.6667 4.25 20.9167 5 20 5Z" fill="#90A4AE"/>
<path d="M17.5 16.667H27.5V18.3337H17.5V16.667Z" fill="#CFD8DC"/>
<path d="M12.5 15.8335H15.8333V19.1668H12.5V15.8335Z" fill="#CFD8DC"/>
<path d="M17.5 24.167H27.5V25.8337H17.5V24.167Z" fill="#03A8B7"/>
<path d="M12.5 23.3335H15.8333V26.6668H12.5V23.3335Z" fill="#03A8B7"/>
</svg>
