<svg width="45" height="44" viewBox="0 0 45 44" fill="none" xmlns="http://www.w3.org/2000/svg">
<circle cx="20" cy="20" r="19.5" stroke="black" stroke-opacity="0.75"/>
<rect x="28" y="27" width="16" height="16" rx="8" fill="white"/>
<path d="M36.5182 28.019C36.3468 28.0063 36.175 28 36.0032 28V27C36.1997 27.0001 36.3962 27.0074 36.5922 27.022L36.5182 28.019ZM38.5222 28.469C38.2016 28.3453 37.8724 28.2454 37.5372 28.17L37.7562 27.194C38.1392 27.28 38.5162 27.394 38.8822 27.536L38.5222 28.469ZM39.8922 29.179C39.7492 29.0836 39.6028 28.9936 39.4532 28.909L39.9462 28.039C40.2881 28.2327 40.6153 28.4513 40.9252 28.693L40.3102 29.482C40.1746 29.3762 40.0352 29.2755 39.8922 29.18V29.179ZM41.7262 30.969C41.5284 30.688 41.3101 30.4219 41.0732 30.173L41.7972 29.483C42.0672 29.768 42.3172 30.073 42.5442 30.393L41.7262 30.969ZM42.4702 32.321C42.4045 32.1625 42.3332 32.0064 42.2562 31.853L43.1492 31.403C43.3258 31.7541 43.4762 32.1177 43.5992 32.491L42.6492 32.804C42.5954 32.6409 42.5357 32.4798 42.4702 32.321ZM43.0002 34.828C42.9921 34.4843 42.9587 34.1417 42.9002 33.803L43.8852 33.633C43.9522 34.019 43.9912 34.411 44.0012 34.803L43.0012 34.828H43.0002ZM42.8692 36.366C42.9022 36.196 42.9292 36.027 42.9502 35.856L43.9432 35.979C43.8951 36.3692 43.8183 36.7552 43.7132 37.134L42.7492 36.867C42.7952 36.702 42.8352 36.535 42.8692 36.366ZM41.9172 38.745C42.1012 38.455 42.2632 38.151 42.4032 37.837L43.3172 38.242C43.1572 38.602 42.9722 38.948 42.7622 39.28L41.9172 38.745ZM40.9532 39.95C41.0752 39.828 41.1922 39.702 41.3032 39.572L42.0612 40.225C41.9328 40.3738 41.7991 40.5179 41.6602 40.657L40.9532 39.95Z" fill="black" fill-opacity="0.75"/>
<path d="M36.0031 28C34.852 28.0001 33.7187 28.284 32.7035 28.8267C31.6883 29.3694 30.8227 30.1541 30.1832 31.1112C29.5437 32.0684 29.1501 33.1685 29.0373 34.3141C28.9245 35.4596 29.096 36.6154 29.5365 37.6789C29.977 38.7423 30.673 39.6808 31.5628 40.4111C32.4527 41.1413 33.5089 41.6409 34.6379 41.8655C35.7669 42.0901 36.9338 42.0328 38.0354 41.6987C39.1369 41.3645 40.1391 40.7639 40.9531 39.95L41.6601 40.657C40.7299 41.5878 39.5844 42.2747 38.3252 42.657C37.066 43.0393 35.7319 43.105 34.4412 42.8485C33.1505 42.5919 31.943 42.021 30.9257 41.1862C29.9084 40.3515 29.1127 39.2787 28.6091 38.0629C28.1055 36.8471 27.9095 35.5259 28.0386 34.2163C28.1676 32.9067 28.6177 31.6491 29.349 30.555C30.0802 29.4609 31.0701 28.5641 32.2308 27.944C33.3914 27.3239 34.6872 26.9997 36.0031 27V28Z" fill="black" fill-opacity="0.75"/>
<path d="M35.5032 30C35.6358 30 35.763 30.0527 35.8567 30.1464C35.9505 30.2402 36.0032 30.3674 36.0032 30.5V35.71L39.2512 37.566C39.363 37.6334 39.4439 37.7419 39.4768 37.8683C39.5097 37.9946 39.4918 38.1288 39.427 38.2422C39.3622 38.3556 39.2557 38.4391 39.1302 38.4749C39.0046 38.5108 38.87 38.4961 38.7552 38.434L35.2552 36.434C35.1786 36.3903 35.115 36.3271 35.0708 36.2509C35.0265 36.1747 35.0032 36.0881 35.0032 36V30.5C35.0032 30.3674 35.0559 30.2402 35.1496 30.1464C35.2434 30.0527 35.3706 30 35.5032 30Z" fill="black" fill-opacity="0.75"/>
<rect x="18" y="25" width="1" height="1" rx="0.5" fill="black"/>
<rect x="25" y="25" width="1" height="1" rx="0.5" fill="black"/>
<path d="M28 16H23C22.4477 16 22 16.4477 22 17V27C22 27.5523 22.4477 28 23 28H28C28.5523 28 29 27.5523 29 27V17C29 16.4477 28.5523 16 28 16Z" stroke="black" stroke-opacity="0.75"/>
<path d="M24.5 14V12C24.5 11.4477 24.0523 11 23.5 11H13C12.4477 11 12 11.4477 12 12V27C12 27.5523 12.4477 28 13 28H20" stroke="black" stroke-opacity="0.75"/>
</svg>
