<svg width="40" height="40" viewBox="0 0 40 40" fill="none" xmlns="http://www.w3.org/2000/svg">
<path d="M17.996 27.0924V28.4204C17.996 29.9064 19.2006 31.111 20.6866 31.111C22.1726 31.111 23.3772 29.9064 23.3772 28.4204V26.8373C23.3772 26.3779 23.4513 25.9216 23.5966 25.4858L23.8308 24.783C24.0792 24.0377 24.4259 23.3289 24.8617 22.6752L26.5047 20.2106C27.1549 19.2355 27.4094 18.0494 27.2168 16.8934C27.1412 16.4398 26.9982 16 26.7925 15.5887L26.5991 15.202C26.1154 14.2344 25.3874 13.4098 24.4874 12.8098C23.7556 12.322 22.9287 11.9949 22.0612 11.8504L21.934 11.8292C21.2445 11.7142 20.5414 11.7061 19.8494 11.8049L19.3572 11.8752C18.4611 12.0033 17.605 12.3303 16.8519 12.8325C15.9741 13.4177 15.2642 14.2218 14.7924 15.1654L14.6015 15.5471C14.3821 15.986 14.2295 16.4552 14.1488 16.9392C13.96 18.0724 14.1735 19.236 14.7523 20.2284L16.7542 23.6601L17.5717 25.2952C17.8507 25.8532 17.996 26.4685 17.996 27.0924Z" stroke="black" stroke-opacity="0.75"/>
<rect x="17.995" y="27.3855" width="4.96731" height="0.827884" fill="black" fill-opacity="0.75"/>
<rect x="27.2745" y="10.071" width="0.827884" height="2.48365" transform="rotate(45 27.2745 10.071)" fill="black" fill-opacity="0.75"/>
<rect x="13.0275" y="10.5854" width="0.827884" height="2.48365" transform="rotate(-45 13.0275 10.5854)" fill="black" fill-opacity="0.75"/>
<rect x="29.4446" y="25.8303" width="0.827884" height="2.48365" transform="rotate(135 29.4446 25.8303)" fill="black" fill-opacity="0.75"/>
<rect x="13.3184" y="24.0742" width="0.827884" height="2.48365" transform="rotate(51.5259 13.3184 24.0742)" fill="black" fill-opacity="0.75"/>
<rect x="32.0705" y="18.2788" width="0.827884" height="2.48365" transform="rotate(90 32.0705 18.2788)" fill="black" fill-opacity="0.75"/>
<rect x="8.8891" y="19.1067" width="0.827884" height="2.48365" transform="rotate(-90 8.8891 19.1067)" fill="black" fill-opacity="0.75"/>
<circle cx="20" cy="20" r="19.5" stroke="black" stroke-opacity="0.75"/>
<path d="M17 18L18.7501 16L20.5001 18L22.2501 16L24 18" stroke="black" stroke-opacity="0.75"/>
</svg>
